<svg width="88" height="88" viewBox="0 0 88 88" fill="none" xmlns="http://www.w3.org/2000/svg">
<path d="M68.915 45.21C69.6874 45.9835 70.1213 47.0319 70.1213 48.125C70.1213 49.2182 69.6874 50.2666 68.915 51.04L45.54 74.415C44.7665 75.1875 43.7181 75.6214 42.625 75.6214C41.5318 75.6214 40.4834 75.1875 39.71 74.415L16.335 51.04C15.6067 50.2576 15.2102 49.2233 15.2286 48.1546C15.2471 47.0858 15.6791 46.0658 16.434 45.309C17.1908 44.5542 18.2108 44.1221 19.2795 44.1037C20.3483 44.0852 21.3825 44.4818 22.165 45.21L38.5 61.545L38.5 20.625C38.5 19.531 38.9346 18.4818 39.7082 17.7082C40.4817 16.9346 41.531 16.5 42.625 16.5C43.719 16.5 44.7682 16.9346 45.5418 17.7082C46.3154 18.4818 46.75 19.531 46.75 20.625L46.75 61.545L63.085 45.21C63.8584 44.4375 64.9068 44.0037 66 44.0037C67.0931 44.0037 68.1415 44.4375 68.915 45.21Z" fill="#0EA5E9"/>
</svg>
