<svg width="570" height="104" viewBox="0 0 570 104" fill="none" xmlns="http://www.w3.org/2000/svg">
<path d="M0.019336 18.3V-1.07288e-06H75.0193V18.3H48.0193V102H27.3193V18.3H0.019336ZM74.008 102L96.958 -1.07288e-06H136.258L159.208 102H138.508L134.458 83.55H98.758L94.708 102H74.008ZM113.008 17.1L102.658 65.55H130.558L120.208 17.1H113.008ZM172.792 -1.07288e-06H212.842C223.442 -1.07288e-06 231.392 2.15 236.692 6.45C241.992 10.65 244.642 17.5 244.642 27C244.642 32.7 243.792 37.25 242.092 40.65C240.392 43.95 237.492 46.9 233.392 49.5C237.892 51.4 241.192 54.15 243.292 57.75C245.492 61.35 246.592 66.35 246.592 72.75C246.592 82.65 243.692 90 237.892 94.8C232.092 99.6 223.942 102 213.442 102H172.792V-1.07288e-06ZM212.392 59.4H193.492V84.3H212.392C216.892 84.3 220.192 83.4 222.292 81.6C224.492 79.8 225.592 76.5 225.592 71.7C225.592 63.5 221.192 59.4 212.392 59.4ZM211.792 17.7H193.492V42H211.942C219.742 42 223.642 37.95 223.642 29.85C223.642 21.75 219.692 17.7 211.792 17.7ZM322.249 102H264.199V-1.07288e-06H284.899V83.7H322.249V102ZM334.951 102V-1.07288e-06H400.951V18H355.651V41.85H391.951V59.55H355.651V84H400.951V102H334.951Z" fill="#0F172A"/>
<path d="M470.766 67.95C470.766 79.85 476.816 85.8 488.916 85.8C501.016 85.8 507.066 79.85 507.066 67.95V-1.07288e-06H527.766V67.5C527.766 80 524.516 89.2 518.016 95.1C511.616 100.9 501.916 103.8 488.916 103.8C475.916 103.8 466.166 100.9 459.666 95.1C453.266 89.2 450.066 80 450.066 67.5V-1.07288e-06H470.766V67.95ZM549.111 102V-1.07288e-06H569.811V102H549.111Z" fill="#0EA5E9"/>
</svg>
